# xmcd CD database file
#
# Track frame offsets:
#	150
#	4206
#	13736
#	24212
#	49658
#	57997
#	67972
#	77947
#	87477
#	101102
#	109817
#	120168
#	128883
#	140425
#	152324
#	163937
#	174206
#
# Disc length: 2531 seconds
#
# Revision: 0
# Processed by: cddbd v1.5.1PL2 Copyright (c) Steve Scherf et al.
# Submitted via: CDex 1.51
#
DISCID=d209e111
DTITLE=SUSAN McCANN TRIBUTE TO BUCK OWENS - TRIBUTE TO BUCK OWENS
DYEAR=1900
DGENRE=Country
TTITLE0=BUCKAROO (INSTRUMENTAL)
TTITLE1=I LOVE YOU FOR EVER AND EVER
TTITLE2=ACT NATURLLY
TTITLE3=FOOLIN AROUND
TTITLE4=LOVE'S GONNA LIVE HERE AGAIN
TTITLE5=GONNA ROLL OUT THE RED CARPET
TTITLE6=SECOND FIDDLE 
TTITLE7=LAY IT ON THE LINE
TTITLE8=CRYING TIME
TTITLE9=WE SPLIT THE BLANKET DOWN THE MIDDLE 
TTITLE10=ABOVE AND BEYOND
TTITLE11=NEVER WAS A FOOL
TTITLE12=EXCUSE ME I THINK I'VE GOT A HEARTACHE
TTITLE13=TOGETHER AGAIN
TTITLE14=SHE DON'T DESERVE YOU ANY MORE
TTITLE15=I'VE GOT A TIGER BY THE TAIL
TTITLE16=IT TAKES PEOPLE LIKE YOU TO MAKE PEOPLE LIKE ME
EXTD=
EXTT0=
EXTT1=
EXTT2=
EXTT3=
EXTT4=
EXTT5=
EXTT6=
EXTT7=
EXTT8=
EXTT9=
EXTT10=
EXTT11=
EXTT12=
EXTT13=
EXTT14=
EXTT15=
EXTT16=
PLAYORDER=
